<svg width="154" height="25" viewBox="0 0 154 25" fill="none" xmlns="http://www.w3.org/2000/svg">
<path d="M25.4859 0H0L7.22233 3.97965C9.72801 5.36033 10.5024 8.59747 8.89278 10.9626L0 24.0296H8.73802L25.4859 0Z" fill="white"/>
<path d="M12.3789 24.0296H37.8648L30.6424 20.0499C28.1367 18.6692 27.3624 15.4321 28.972 13.0669L37.8648 0H29.1267L12.3789 24.0296Z" fill="white"/>
<path d="M50.5002 23.6655H45.3052L52.2231 14.8922V14.6006L45.3052 5.9069H50.5002L55.4832 12.2417H55.7748L60.5722 5.9069H65.7673L58.8759 14.6802V14.9717L65.7673 23.6655H60.5722L55.6157 17.2512H55.3242L50.5002 23.6655Z" fill="white"/>
<path d="M81.1859 23.6655H66.1574V5.9069H81.1859V9.48512H70.1332V12.9573H80.7884V16.509H70.1332V20.0873H81.1859V23.6655Z" fill="white"/>
<path d="M86.4278 23.6655H82.452V5.9069H92.2589C96.6323 5.9069 99.1238 7.84179 99.1238 11.2345C99.1238 14.1236 97.454 15.8464 94.1143 16.1645V16.3765C95.7046 16.8006 96.3143 17.6488 96.9769 18.8945L99.5479 23.6655H94.936L92.4975 19.0535C91.7819 17.6753 91.1192 17.2247 89.0518 17.2247H86.4278V23.6655ZM86.4278 9.48512V14.2296H92.2324C94.1143 14.2296 94.9625 13.6995 94.9625 11.8441C94.9625 10.0947 94.1143 9.48512 92.2324 9.48512H86.4278Z" fill="white"/>
<path d="M109.418 23.9305C103.534 23.9305 99.8761 20.3258 99.8761 14.7862C99.8761 9.24657 103.534 5.64185 109.418 5.64185C115.435 5.64185 119.066 9.24657 119.066 14.7862C119.066 20.3258 115.435 23.9305 109.418 23.9305ZM109.418 20.1138C113.314 20.1138 114.825 18.7355 114.825 14.7862C114.825 10.8369 113.314 9.45861 109.418 9.45861C105.522 9.45861 104.09 10.8369 104.09 14.7862C104.09 18.7355 105.522 20.1138 109.418 20.1138Z" fill="white"/>
<path d="M124.245 23.6655H120.27V5.9069H124.511L130.872 14.3091L133.31 18.0463H133.602L133.416 14.4681V5.9069H137.392V23.6655H133.151L126.604 15.1838L124.352 11.8441H124.086L124.245 15.1042V23.6655Z" fill="white"/>
<path d="M154 23.6655H138.971V5.9069H154V9.48512H142.947V12.9573H153.602V16.509H142.947V20.0873H154V23.6655Z" fill="white"/>
</svg>
