<svg width="1441" height="11700" viewBox="0 0 1441 11700" fill="none" xmlns="http://www.w3.org/2000/svg">
<line y1="1259.5" x2="1440" y2="1259.5" stroke="#121212"/>
<line y1="1439.5" x2="1440" y2="1439.5" stroke="#121212"/>
<line y1="1619.5" x2="1440" y2="1619.5" stroke="#121212"/>
<line y1="1799.5" x2="1440" y2="1799.5" stroke="#121212"/>
<line y1="1979.5" x2="1440" y2="1979.5" stroke="#121212"/>
<line y1="2159.5" x2="1440" y2="2159.5" stroke="#121212"/>
<line y1="2339.5" x2="1440" y2="2339.5" stroke="#121212"/>
<line y1="2519.5" x2="1440" y2="2519.5" stroke="#121212"/>
<line y1="2699.5" x2="1440" y2="2699.5" stroke="#121212"/>
<line y1="2879.5" x2="1440" y2="2879.5" stroke="#121212"/>
<line y1="3059.5" x2="1440" y2="3059.5" stroke="#121212"/>
<line y1="3239.5" x2="1440" y2="3239.5" stroke="#121212"/>
<line y1="3419.5" x2="1440" y2="3419.5" stroke="#121212"/>
<line y1="3599.5" x2="1440" y2="3599.5" stroke="#121212"/>
<line y1="3779.5" x2="1440" y2="3779.5" stroke="#121212"/>
<line y1="3959.5" x2="1440" y2="3959.5" stroke="#121212"/>
<line y1="4139.5" x2="1440" y2="4139.5" stroke="#121212"/>
<line y1="4319.5" x2="1440" y2="4319.5" stroke="#121212"/>
<line y1="4499.5" x2="1440" y2="4499.5" stroke="#121212"/>
<line y1="4679.5" x2="1440" y2="4679.5" stroke="#121212"/>
<line y1="4859.5" x2="1440" y2="4859.5" stroke="#121212"/>
<line y1="5039.5" x2="1440" y2="5039.5" stroke="#121212"/>
<line y1="5219.5" x2="1440" y2="5219.5" stroke="#121212"/>
<line y1="5399.5" x2="1440" y2="5399.5" stroke="#121212"/>
<line y1="5579.5" x2="1440" y2="5579.5" stroke="#121212"/>
<line y1="5759.5" x2="1440" y2="5759.5" stroke="#121212"/>
<line y1="5939.5" x2="1440" y2="5939.5" stroke="#121212"/>
<line y1="6119.5" x2="1440" y2="6119.5" stroke="#121212"/>
<line y1="6299.5" x2="1440" y2="6299.5" stroke="#121212"/>
<line y1="6479.5" x2="1440" y2="6479.5" stroke="#121212"/>
<line y1="6659.5" x2="1440" y2="6659.5" stroke="#121212"/>
<line y1="6839.5" x2="1440" y2="6839.5" stroke="#121212"/>
<line y1="7019.5" x2="1440" y2="7019.5" stroke="#121212"/>
<line y1="7199.5" x2="1440" y2="7199.5" stroke="#121212"/>
<line y1="7379.5" x2="1440" y2="7379.5" stroke="#121212"/>
<line y1="7559.5" x2="1440" y2="7559.5" stroke="#121212"/>
<line y1="7739.5" x2="1440" y2="7739.5" stroke="#121212"/>
<line y1="7919.5" x2="1440" y2="7919.5" stroke="#121212"/>
<line y1="8099.5" x2="1440" y2="8099.5" stroke="#121212"/>
<line y1="8279.5" x2="1440" y2="8279.5" stroke="#121212"/>
<line y1="8459.5" x2="1440" y2="8459.5" stroke="#121212"/>
<line y1="8639.5" x2="1440" y2="8639.5" stroke="#121212"/>
<line y1="8819.5" x2="1440" y2="8819.5" stroke="#121212"/>
<line y1="8999.5" x2="1440" y2="8999.5" stroke="#121212"/>
<line y1="9179.5" x2="1440" y2="9179.5" stroke="#121212"/>
<line y1="9359.5" x2="1440" y2="9359.5" stroke="#121212"/>
<line y1="9539.5" x2="1440" y2="9539.5" stroke="#121212"/>
<line y1="9719.5" x2="1440" y2="9719.5" stroke="#121212"/>
<line y1="9899.5" x2="1440" y2="9899.5" stroke="#121212"/>
<line y1="10079.5" x2="1440" y2="10079.5" stroke="#121212"/>
<line y1="10259.5" x2="1440" y2="10259.5" stroke="#121212"/>
<line y1="10439.5" x2="1440" y2="10439.5" stroke="#121212"/>
<line y1="10619.5" x2="1440" y2="10619.5" stroke="#121212"/>
<line y1="10799.5" x2="1440" y2="10799.5" stroke="#121212"/>
<line y1="10979.5" x2="1440" y2="10979.5" stroke="#121212"/>
<line y1="11159.5" x2="1440" y2="11159.5" stroke="#121212"/>
<line y1="11339.5" x2="1440" y2="11339.5" stroke="#121212"/>
<line y1="11519.5" x2="1440" y2="11519.5" stroke="#121212"/>
<line y1="11699.5" x2="1440" y2="11699.5" stroke="#121212"/>
<line y1="1079.5" x2="1440" y2="1079.5" stroke="#121212"/>
<line y1="899.5" x2="1440" y2="899.5" stroke="#121212"/>
<line y1="719.5" x2="1440" y2="719.5" stroke="#121212"/>
<line y1="539.5" x2="1440" y2="539.5" stroke="#121212"/>
<line y1="359.5" x2="1440" y2="359.5" stroke="#121212"/>
<line y1="179.5" x2="1440" y2="179.5" stroke="#121212"/>
<line x1="180.5" y1="3.24327e-08" x2="180.5" y2="11607" stroke="#121212"/>
<line x1="360.5" y1="4.64004e-08" x2="360.5" y2="11607" stroke="#121212"/>
<line x1="540.5" y1="4.64004e-08" x2="540.5" y2="11607" stroke="#121212"/>
<line x1="720.5" y1="4.64004e-08" x2="720.5" y2="11607" stroke="#121212"/>
<line x1="900.5" y1="4.64004e-08" x2="900.5" y2="11607" stroke="#121212"/>
<line x1="1080.5" y1="4.64004e-08" x2="1080.5" y2="11607" stroke="#121212"/>
<line x1="1260.5" y1="3.42076e-08" x2="1260.5" y2="11607" stroke="#121212"/>
<rect x="181.119" y="180.167" width="179.122" height="179.166" fill="url(#paint0_linear_535_1689)"/>
<rect x="901" y="180" width="180" height="179" fill="url(#paint1_linear_535_1689)"/>
<rect x="541" width="179" height="179" fill="url(#paint2_linear_535_1689)"/>
<rect x="1261" width="180" height="179" fill="url(#paint3_linear_535_1689)"/>
<rect width="179" height="180" transform="matrix(-1 8.7444e-08 8.74016e-08 1 720 540)" fill="url(#paint4_linear_535_1689)"/>
<rect width="180" height="180" transform="matrix(-1 8.7444e-08 8.74016e-08 1 1441 540)" fill="url(#paint5_linear_535_1689)"/>
<rect width="179" height="180" transform="matrix(-1 8.7444e-08 8.74016e-08 1 180 720)" fill="url(#paint6_linear_535_1689)"/>
<rect width="180" height="180" transform="matrix(-1 8.7444e-08 8.74016e-08 1 1081 900)" fill="url(#paint7_linear_535_1689)"/>
<defs>
<linearGradient id="paint0_linear_535_1689" x1="360.242" y1="180.167" x2="181.076" y2="359.289" gradientUnits="userSpaceOnUse">
<stop stop-color="#161616"/>
<stop offset="1" stop-color="#0E0E0E"/>
</linearGradient>
<linearGradient id="paint1_linear_535_1689" x1="901" y1="180" x2="1080" y2="359.997" gradientUnits="userSpaceOnUse">
<stop stop-color="#161616"/>
<stop offset="1" stop-color="#0E0E0E"/>
</linearGradient>
<linearGradient id="paint2_linear_535_1689" x1="630.5" y1="0" x2="630.5" y2="179" gradientUnits="userSpaceOnUse">
<stop stop-color="#161616"/>
<stop offset="1" stop-color="#0E0E0E"/>
</linearGradient>
<linearGradient id="paint3_linear_535_1689" x1="1351" y1="0" x2="1351" y2="179" gradientUnits="userSpaceOnUse">
<stop stop-color="#121212"/>
<stop offset="1" stop-color="#0E0E0E"/>
</linearGradient>
<linearGradient id="paint4_linear_535_1689" x1="89.5" y1="0" x2="89.5" y2="180" gradientUnits="userSpaceOnUse">
<stop stop-color="#161515"/>
<stop offset="1" stop-color="#0E0E0E"/>
</linearGradient>
<linearGradient id="paint5_linear_535_1689" x1="90" y1="0" x2="90" y2="180" gradientUnits="userSpaceOnUse">
<stop stop-color="#121212"/>
<stop offset="1" stop-color="#0E0E0E"/>
</linearGradient>
<linearGradient id="paint6_linear_535_1689" x1="89.5" y1="0" x2="89.5" y2="180" gradientUnits="userSpaceOnUse">
<stop stop-color="#121212"/>
<stop offset="1" stop-color="#0E0E0E"/>
</linearGradient>
<linearGradient id="paint7_linear_535_1689" x1="90" y1="0" x2="90" y2="180" gradientUnits="userSpaceOnUse">
<stop stop-color="#121212"/>
<stop offset="1" stop-color="#0E0E0E"/>
</linearGradient>
</defs>
</svg>
