<svg width="1440" height="794" viewBox="0 0 1440 794" fill="none" xmlns="http://www.w3.org/2000/svg">
<mask id="mask0_680_1509" style="mask-type:alpha" maskUnits="userSpaceOnUse" x="0" y="0" width="1440" height="794">
<rect width="1440" height="794" fill="#0E0E0E"/>
</mask>
<g mask="url(#mask0_680_1509)">
<line y1="28.5" x2="1440" y2="28.5" stroke="#121212"/>
<line y1="208.5" x2="1440" y2="208.5" stroke="#121212"/>
<line y1="388.5" x2="1440" y2="388.5" stroke="#121212"/>
<line y1="568.5" x2="1440" y2="568.5" stroke="#121212"/>
<line y1="748.5" x2="1440" y2="748.5" stroke="#121212"/>
<line x1="180.5" y1="-10771" x2="180.5" y2="836" stroke="#121212"/>
<line x1="360.5" y1="-10771" x2="360.5" y2="836" stroke="#121212"/>
<line x1="540.5" y1="-10771" x2="540.5" y2="836" stroke="#121212"/>
<line x1="720.5" y1="-10771" x2="720.5" y2="836" stroke="#121212"/>
<line x1="900.5" y1="-10771" x2="900.5" y2="836" stroke="#121212"/>
<line x1="1080.5" y1="-10771" x2="1080.5" y2="836" stroke="#121212"/>
<line x1="1260.5" y1="-10771" x2="1260.5" y2="836" stroke="#121212"/>
<mask id="mask1_680_1509" style="mask-type:alpha" maskUnits="userSpaceOnUse" x="0" y="0" width="1440" height="794">
<rect width="1440" height="794" fill="white"/>
</mask>
<g mask="url(#mask1_680_1509)">
<rect x="1260" y="208" width="179" height="179" transform="rotate(180 1260 208)" fill="url(#paint0_linear_680_1509)"/>
<rect x="540" y="208" width="179" height="179" transform="rotate(180 540 208)" fill="url(#paint1_linear_680_1509)"/>
<rect x="900" y="388" width="179" height="179" transform="rotate(180 900 388)" fill="url(#paint2_linear_680_1509)"/>
<rect x="180" y="388" width="179" height="179" transform="rotate(180 180 388)" fill="url(#paint3_linear_680_1509)"/>
</g>
</g>
<defs>
<linearGradient id="paint0_linear_680_1509" x1="1439" y1="208" x2="1260" y2="387" gradientUnits="userSpaceOnUse">
<stop stop-color="#161616"/>
<stop offset="1" stop-color="#0E0E0E"/>
</linearGradient>
<linearGradient id="paint1_linear_680_1509" x1="540" y1="208" x2="719" y2="387" gradientUnits="userSpaceOnUse">
<stop stop-color="#161616"/>
<stop offset="1" stop-color="#0E0E0E"/>
</linearGradient>
<linearGradient id="paint2_linear_680_1509" x1="989.5" y1="388" x2="989.5" y2="567" gradientUnits="userSpaceOnUse">
<stop stop-color="#161616"/>
<stop offset="1" stop-color="#0E0E0E"/>
</linearGradient>
<linearGradient id="paint3_linear_680_1509" x1="269.5" y1="388" x2="269.5" y2="567" gradientUnits="userSpaceOnUse">
<stop stop-color="#121212"/>
<stop offset="1" stop-color="#0E0E0E"/>
</linearGradient>
</defs>
</svg>
