<svg width="16" height="16" viewBox="0 0 16 16" fill="none" xmlns="http://www.w3.org/2000/svg">
<path d="M8.6854 1.33496C9.43566 1.3362 9.81586 1.34017 10.1444 1.34995L10.2738 1.35418C10.4233 1.35949 10.5707 1.36616 10.7485 1.37449C11.4579 1.40727 11.9419 1.51949 12.3669 1.68449C12.8063 1.85394 13.1774 2.08283 13.5479 2.45339C13.9179 2.82394 14.1469 3.19616 14.3169 3.63449C14.4813 4.05894 14.5935 4.54339 14.6269 5.25283C14.6348 5.43061 14.6412 5.57807 14.6465 5.72757L14.6507 5.85696C14.6604 6.18545 14.6649 6.56571 14.6663 7.31601L14.6668 7.81308C14.6669 7.87381 14.6669 7.93647 14.6669 8.00114L14.6668 8.18921L14.6664 8.68634C14.6651 9.43661 14.6612 9.81687 14.6514 10.1453L14.6471 10.2747C14.6419 10.4243 14.6352 10.5717 14.6269 10.7495C14.5941 11.4589 14.4813 11.9428 14.3169 12.3678C14.1474 12.8073 13.9179 13.1784 13.5479 13.5489C13.1774 13.9189 12.8046 14.1478 12.3669 14.3178C11.9419 14.4823 11.4579 14.5945 10.7485 14.6278C10.5707 14.6357 10.4233 14.6422 10.2738 14.6474L10.1444 14.6516C9.81586 14.6614 9.43566 14.6658 8.6854 14.6673L8.18826 14.6678C8.12753 14.6678 8.06486 14.6678 8.0002 14.6678H7.81213L7.315 14.6673C6.56473 14.6661 6.18448 14.6621 5.85598 14.6523L5.72659 14.6481C5.57709 14.6428 5.42962 14.6361 5.25185 14.6278C4.5424 14.5951 4.05907 14.4823 3.63352 14.3178C3.19462 14.1484 2.82296 13.9189 2.4524 13.5489C2.08185 13.1784 1.85352 12.8056 1.68352 12.3678C1.51852 11.9428 1.40685 11.4589 1.37352 10.7495C1.3656 10.5717 1.35914 10.4243 1.3539 10.2747L1.34971 10.1453C1.33996 9.81687 1.33551 9.43661 1.33407 8.68634L1.33398 7.31601C1.33522 6.56571 1.33919 6.18545 1.34897 5.85696L1.3532 5.72757C1.35852 5.57807 1.36518 5.43061 1.37352 5.25283C1.40629 4.54283 1.51852 4.05949 1.68352 3.63449C1.85296 3.19561 2.08185 2.82394 2.4524 2.45339C2.82296 2.08283 3.19518 1.85449 3.63352 1.68449C4.05852 1.51949 4.54185 1.40783 5.25185 1.37449C5.42962 1.36658 5.57709 1.36012 5.72659 1.35489L5.85598 1.35069C6.18448 1.34093 6.56473 1.33649 7.315 1.33505L8.6854 1.33496ZM8.0002 4.66783C6.15825 4.66783 4.66685 6.16085 4.66685 8.00114C4.66685 9.84307 6.15987 11.3345 8.0002 11.3345C9.84213 11.3345 11.3335 9.84147 11.3335 8.00114C11.3335 6.15923 9.84046 4.66783 8.0002 4.66783ZM8.0002 6.00116C9.1048 6.00116 10.0002 6.89627 10.0002 8.00114C10.0002 9.10574 9.10506 10.0011 8.0002 10.0011C6.8956 10.0011 6.00018 9.10607 6.00018 8.00114C6.00018 6.89654 6.89526 6.00116 8.0002 6.00116ZM11.5002 3.66783C11.0407 3.66783 10.6669 4.0411 10.6669 4.50059C10.6669 4.96009 11.0401 5.33394 11.5002 5.33394C11.9597 5.33394 12.3335 4.96067 12.3335 4.50059C12.3335 4.0411 11.9591 3.66725 11.5002 3.66783Z" fill="white"/>
</svg>
