<svg width="16" height="16" viewBox="0 0 16 16" fill="none" xmlns="http://www.w3.org/2000/svg">
<path d="M4.62568 3.33394C4.62544 3.87681 4.29608 4.36533 3.79292 4.56914C3.28976 4.77295 2.71328 4.65135 2.3353 4.26168C1.95732 3.87201 1.85333 3.29208 2.07236 2.79536C2.2914 2.29864 2.78972 1.98432 3.33235 2.0006C4.05306 2.02224 4.62601 2.6129 4.62568 3.33394ZM4.66568 5.65394H1.99902V14.0006H4.66568V5.65394ZM8.87903 5.65394H6.22568V14.0006H8.85236V9.62058C8.85236 7.18058 12.0324 6.95392 12.0324 9.62058V14.0006H14.6657V8.71392C14.6657 4.6006 9.95903 4.75394 8.85236 6.77392L8.87903 5.65394Z" fill="white"/>
</svg>
